<?xml version="1.0" encoding="UTF-8" standalone="no"?>
<svg xmlns="http://www.w3.org/2000/svg" xmlns:inkscape="http://www.inkscape.org/namespaces/inkscape" xmlns:sodipodi="http://sodipodi.sourceforge.net/DTD/sodipodi-0.dtd" xmlns:xlink="http://www.w3.org/1999/xlink" width="1672" height="941" viewBox="0 0 1672 941" version="1.1" id="egrid_regions_master_template">
  <metadata>Exported from E-Grid 2045 Region Shape Editor. Background layer is a guide; region groups are editable semantic gameplay regions.</metadata>
  <g id="background_locked" inkscape:groupmode="layer" inkscape:label="background_locked" sodipodi:insensitive="true">
    <image id="map_backdrop" href="europe_map_backdrop_generated_clean_v1.png" xlink:href="europe_map_backdrop_generated_clean_v1.png" x="0" y="0" width="1672" height="941" preserveAspectRatio="none" opacity="1" />
  </g>
  <g id="region_shapes" inkscape:groupmode="layer" inkscape:label="region_shapes_editable">
    <g id="region:fr_nord" data-region-id="1" data-region-slug="fr_nord" data-region-name="France Nord" style="fill:#4572f7;fill-opacity:0.28;stroke:#31e6ff;stroke-width:1.5;stroke-opacity:0.72;vector-effect:non-scaling-stroke">
      <polygon id="region__fr_nord__00" points="376.08,549.65 407.27,577.17 537.57,578.68 621,599 684.65,589.3 740.39,546.29 740.22,524.23 765.4,489.73 709.7,473.97 655.99,451.25 609.6,412.96 581.3,414.97 573.38,441.34 547,455 522,459 507,466 505,473 496,479 483,478 460.74,474.38 454.16,456.57 428.22,458.12 434.41,479.02 429,503.42 403.84,502.64 376.73,494.9 345.37,495.28 315.57,502.25 335.12,514.11 315.91,519.16 339.16,530.28" />
    </g>
    <g id="region:fr_sud" data-region-id="2" data-region-slug="fr_sud" data-region-name="France Sud" style="fill:#8645f7;fill-opacity:0.28;stroke:#31e6ff;stroke-width:1.5;stroke-opacity:0.72;vector-effect:non-scaling-stroke">
      <polygon id="region__fr_sud__00" points="721.73,661.3 696.47,652.08 707.06,605.02 688.71,591.04 624,600 540.57,579.68 408.16,576.4 404.99,585.53 389.24,626.39 378.87,658.21 358.91,663.74 368.57,677.56 382.4,687.35 413.55,699.57 459.85,702.77 493.31,721.05 536.96,716.25 543.51,691.81 574.94,676.1 608.11,678.71 637,691 661.56,702.55 683.19,697.05 709,680 718.83,675.97" />
    </g>
    <g id="region:de_west" data-region-id="3" data-region-slug="de_west" data-region-name="Allemagne Ouest" style="fill:#f445f7;fill-opacity:0.28;stroke:#31e6ff;stroke-width:1.5;stroke-opacity:0.72;vector-effect:non-scaling-stroke">
      <polygon id="region__de_west__00" points="721.91,446.8 734.06,458.45 722.4,476.76 766.25,490.08 739.43,522.86 740.45,543.85 774.52,540.55 799.69,538.48 822.84,547.78 836.71,555 838.59,418.4 736.83,415.17 721.85,431.82" />
    </g>
    <g id="region:de_east" data-region-id="4" data-region-slug="de_east" data-region-name="Allemagne Est" style="fill:#f7458c;fill-opacity:0.28;stroke:#31e6ff;stroke-width:1.5;stroke-opacity:0.72;vector-effect:non-scaling-stroke">
      <polygon id="region__de_east__00" points="836.74,556.18 861.39,547.65 883.32,551.12 925.5,542.8 942.2,515.66 958.72,509.33 921.98,476.7 909.01,450.03 965.93,422.34 838.99,418.4" />
    </g>
    <g id="region:benelux" data-region-id="5" data-region-slug="benelux" data-region-name="Benelux" style="fill:#f76c45;fill-opacity:0.28;stroke:#31e6ff;stroke-width:1.5;stroke-opacity:0.72;vector-effect:non-scaling-stroke">
      <polygon id="region__benelux__00" points="770.64,343.89 755.8,334.32 732.82,334.32 709.37,346.76 713.2,362.56 692.61,368.78 700.75,355.37 688.78,347.24 681.08,364.61 642.83,398.93 611.34,411.65 655.27,450.15 710.65,473.49 723.16,476.09 734.83,459.96 723.16,448.28 721.99,433 734.83,417.38 728.57,396.69 754.77,392.37 768.04,367.2" />
    </g>
    <g id="region:dk" data-region-id="6" data-region-slug="dk" data-region-name="Danemark" style="fill:#f7da45;fill-opacity:0.28;stroke:#31e6ff;stroke-width:1.5;stroke-opacity:0.72;vector-effect:non-scaling-stroke">
      <polygon id="region__dk__00" points="806.19,239.12 799.95,267.65 812.3,291.97 838.23,292.63 849.33,263.21 867.09,252.11 885.4,245.46 867.65,236.02 874.86,214.94 857.66,210.5 824.92,221.03" />
      <polygon id="region__dk__01" points="923.21,255 918.14,280.41 907.59,293.18 883.19,265.98 901.5,247.12" />
      <polygon id="region__dk__02" points="894.7,301.21 866.99,294.09 847.67,274.86 864.21,264.87 882.08,284.85" />
    </g>
    <g id="region:se_south" data-region-id="7" data-region-slug="se_south" data-region-name="Suède Sud" style="fill:#a7f745;fill-opacity:0.28;stroke:#31e6ff;stroke-width:1.5;stroke-opacity:0.72;vector-effect:non-scaling-stroke">
      <polygon id="region__se_south__00" points="936.09,242.71 923.85,248.65 934.97,262.77 936.96,274.68 962.77,280.73 977.4,264.42 1014.29,252.11 1028.76,216.9 1034.07,191.34 1052.46,178.47 1071.21,174.95 1084.71,148.91 1046.13,127.2 1050.48,94.88 930.38,61.12 926.91,92.19 941.96,106.94 927.25,117.77 920.86,140.65 920.18,159.16 896.13,170.12 910.15,209.72" />
    </g>
    <g id="region:se_north" data-region-id="8" data-region-slug="se_north" data-region-name="Suède Nord" style="fill:#45f751;fill-opacity:0.28;stroke:#31e6ff;stroke-width:1.5;stroke-opacity:0.72;vector-effect:non-scaling-stroke">
      <polygon id="region__se_north__00" points="1002.44,0 976.24,24.23 978.65,36.76 943.44,41.59 931.04,57.97 1052.68,94.65 1062.57,76.79 1123.35,51.72 1139.27,42.07 1128.17,34.35 1159.04,14.1 1188.95,9.16 1179.77,0" />
    </g>
    <g id="region:fi" data-region-id="9" data-region-slug="fi" data-region-name="Finlande" style="fill:#45f7bf;fill-opacity:0.28;stroke:#31e6ff;stroke-width:1.5;stroke-opacity:0.72;vector-effect:non-scaling-stroke">
      <polygon id="region__fi__00" points="1190.71,8.99 1220.5,17.84 1217.8,33.99 1139.41,78.41 1141.76,127.2 1182.81,146.04 1299.19,127.71 1358.72,65.37 1287.31,0 1181.12,0" />
    </g>
    <g id="region:ie" data-region-id="10" data-region-slug="ie" data-region-name="Irlande" style="fill:#45c2f7;fill-opacity:0.28;stroke:#31e6ff;stroke-width:1.5;stroke-opacity:0.72;vector-effect:non-scaling-stroke">
      <polygon id="region__ie__00" points="321.84,239.18 280,260 281,268 272,274 243,268 234,271 228,278 231,287 219,295 228,317 204,335 190,337 188,345 195.16,364.45 214.56,372.42 279.75,347.98 307.68,350.6 334.76,321.76 337.23,293.62 371.46,275.79 354.93,248.02 339.02,249.59" />
      <polygon id="region__ie__01" points="467.95,423.43 557.42,417.4 533.69,404.21 579.39,370.82 582.9,351.49 547.75,342.7 537.21,351.49 535.45,319.85 516.99,282.06 487.99,239.88 460.75,231.97 514.35,187.14 458.99,178.36 492.38,159.02 431.75,147.6 393.07,184.5 371.53,214.14 363.91,234.77 373.74,245.15 405.58,241.33 384.29,266.24 432.62,271.51 431.74,300.51 428.22,319.85 386.05,321.61 385.17,349.73 333.53,367.9 371.03,384.81 409.77,390.15 400.97,400.21 357.92,400.7 331.24,423.73 298.68,438.14 315.42,442.98 341.08,431.87 367.58,436.74 393.27,421.18 412.41,428.83" />
    </g>
    <g id="region:es_north" data-region-id="11" data-region-slug="es_north" data-region-name="Espagne Nord" style="fill:#4554f7;fill-opacity:0.28;stroke:#31e6ff;stroke-width:1.5;stroke-opacity:0.72;vector-effect:non-scaling-stroke">
      <polygon id="region__es_north__00" points="359.26,665.83 324.38,655.25 301.04,640.19 280.33,645.08 233.26,622.87 210.67,620.24 177.54,604.42 117.66,616.09 128.96,638.68 111.27,662.78 139.6,654.97 163.25,676.78 185.84,671.52 203.96,689.38 170.55,713.31 406.95,809.38 430.12,786.06 442.08,783.67 451.66,768.83 489.46,765.01 539.73,742.03 544.99,729.11 538.29,716.19 491.38,720.97 458.84,702.78 414.2,699.88 375.76,686.69" />
    </g>
    <g id="region:es_south" data-region-id="12" data-region-slug="es_south" data-region-name="Espagne Sud" style="fill:#a445f7;fill-opacity:0.28;stroke:#31e6ff;stroke-width:1.5;stroke-opacity:0.72;vector-effect:non-scaling-stroke">
      <polygon id="region__es_south__00" points="172.56,710.88 164.33,747.56 147.7,774.78 138.13,802.5 120.47,819.14 114.42,844.34 147.04,869.46 149.21,898.78 170.39,905.84 210.71,893.24 245.5,894.25 282.8,903.32 308.5,907.86 330.18,887.69 363.96,886.6 382,861 408,850 397,840 396,821 408.52,806.02" />
    </g>
    <g id="region:pt" data-region-id="13" data-region-slug="pt" data-region-name="Portugal" style="fill:#f745dd;fill-opacity:0.28;stroke:#31e6ff;stroke-width:1.5;stroke-opacity:0.72;vector-effect:non-scaling-stroke">
      <polygon id="region__pt__00" points="186.13,672.61 164.29,677.48 142.65,657.62 116,662 114,683 92,722 68,744 57,765 62,778 73,786 66,811 52.07,841.29 95,849 113,845 119.88,818.71 137.62,804.02 150.22,768.23 162.31,749.57 171.62,712.27 202.96,689.4" />
    </g>
    <g id="region:it_north" data-region-id="14" data-region-slug="it_north" data-region-name="Italie Nord" style="fill:#f7456f;fill-opacity:0.28;stroke:#31e6ff;stroke-width:1.5;stroke-opacity:0.72;vector-effect:non-scaling-stroke">
      <polygon id="region__it_north__00" points="718.83,673.97 745.96,669.16 749.84,650.57 777.33,648.64 803,665 818,677 820,689 902,680 884,668 881,650 888,643 881.08,627.35 906.63,620.38 929.86,611.09 930.91,590.74 872.4,576.07 845.46,585.54 808.29,611.08 787.01,592.12 772.68,608.38 757.97,587.86 748.07,607.14 722.74,604.5 709.58,585.54 687.13,589.8 707.01,604.36 697.02,652.08 723.73,661.3" />
    </g>
    <g id="region:it_south_islands" data-region-id="15" data-region-slug="it_south_islands" data-region-name="Italie Sud &amp; îles" style="fill:#f78945;fill-opacity:0.28;stroke:#31e6ff;stroke-width:1.5;stroke-opacity:0.72;vector-effect:non-scaling-stroke">
      <polygon id="region__it_south_islands__00" points="899,681 818.16,689.69 837.23,733.13 882.68,766.94 898,772 922,775 928,787 927,797 935,802 951,797 955,799 961,818 988,828 988,835 996,844 1002,866 990,873 991,881 982,888 982.01,900.2 996.55,901.77 1002,891 1016,882 1015,872 1020,868 1036.6,864.19 1036.6,847.94 1027,843 1016,838 1012,829 1020,814 1031.61,802.84 1062.93,815.8 1078.8,830.91 1084.61,815.03 1064.48,798.77 1022.67,776.7 992,764 992,760 1002,753 997,746 976,751 951,740 932,719 924,695" />
      <polygon id="region__it_south_islands__01" points="932.21,941 908.1,933.85 867.93,916.01 850.07,905.36 859,889.9 894.36,887.93 910.52,898.75 942.82,889.58 974.68,886.53 963.77,903.99 958.1,918.39 962.9,941" />
    </g>
    <g id="region:at" data-region-id="16" data-region-slug="at" data-region-name="Autriche" style="fill:#f7f745;fill-opacity:0.28;stroke:#31e6ff;stroke-width:1.5;stroke-opacity:0.72;vector-effect:non-scaling-stroke">
      <polygon id="region__at__00" points="822.75,579.56 848.54,584.28 872.33,574.6 890.01,582.02 903.01,583.02 932.92,588.73 955.95,590.91 974.26,576.48 992.77,579.21 1010.33,572.04 1024.2,544.3 1041.41,535.42 1033.08,507.12 992.57,506.57 943.74,512.12 927.1,542.63 883.26,551.51 860.13,548.68 837.2,555.39 821.66,549.29 807.79,561.5" />
    </g>
    <g id="region:pl" data-region-id="17" data-region-slug="pl" data-region-name="Pologne" style="fill:#89f745;fill-opacity:0.28;stroke:#31e6ff;stroke-width:1.5;stroke-opacity:0.72;vector-effect:non-scaling-stroke">
      <polygon id="region__pl__00" points="984.61,352.04 968.89,362.47 987.93,380.96 980.31,402.71 987.38,420.66 1025.99,429.9 1031.44,448.39 1046.12,439.69 1082,450.57 1091.68,459.79 1134.01,479.04 1161.51,471.6 1205.92,487.32 1249.8,418.78 1219.21,389.8 1222.85,363.41 1214.25,338.54 1198.92,311.56 1119.42,300.4 1097.95,307.76 1082.82,307.78 1076.43,290.48 1026.94,309.87 975.57,330.01" />
    </g>
    <g id="region:cz" data-region-id="18" data-region-slug="cz" data-region-name="Tchéquie" style="fill:#45f76f;fill-opacity:0.28;stroke:#31e6ff;stroke-width:1.5;stroke-opacity:0.72;vector-effect:non-scaling-stroke">
      <polygon id="region__cz__00" points="1080.24,450.52 1046.4,439.97 1033.7,449.61 1026.42,431.66 997.57,422.78 967.05,423.33 909.03,450.32 923.77,478.82 950.96,503.23 969.27,514.89 989.79,502.68 1006.29,510.3 1034.19,509.33 1088.52,465.32" />
    </g>
    <g id="region:sk" data-region-id="19" data-region-slug="sk" data-region-name="Slovaquie" style="fill:#45f7dd;fill-opacity:0.28;stroke:#31e6ff;stroke-width:1.5;stroke-opacity:0.72;vector-effect:non-scaling-stroke">
      <polygon id="region__sk__00" points="1041.62,530.87 1060.82,543.19 1087.46,539.31 1093.77,524.02 1123.9,522.44 1144.93,506.98 1179.82,503.8 1204.41,491.11 1173.87,475.25 1145.32,474.06 1125.49,480.01 1112.01,466.92 1088.48,462.35 1035.3,506.56" />
    </g>
    <g id="region:hu" data-region-id="20" data-region-slug="hu" data-region-name="Hongrie" style="fill:#45a4f7;fill-opacity:0.28;stroke:#31e6ff;stroke-width:1.5;stroke-opacity:0.72;vector-effect:non-scaling-stroke">
      <polygon id="region__hu__00" points="1009.9,571.54 1023.58,545.44 1041.03,533.54 1059.67,545.04 1086.63,539.49 1093.79,523.86 1120.59,524.64 1147.32,504.32 1180.39,503.37 1206.9,489.65 1228.11,507.75 1206.39,526.42 1197.22,557.65 1180.7,572.32 1150.13,591.34 1122.68,591.02 1096.79,612.55 1043.41,598.57" />
    </g>
    <g id="region:ro" data-region-id="21" data-region-slug="ro" data-region-name="Roumanie" style="fill:#5445f7;fill-opacity:0.28;stroke:#31e6ff;stroke-width:1.5;stroke-opacity:0.72;vector-effect:non-scaling-stroke">
      <polygon id="region__ro__00" points="1433.57,614.78 1429.3,596.21 1400.75,601.36 1380.88,590.14 1380.93,550.21 1357.92,521.26 1327.79,500.24 1304,522.06 1257.2,515.31 1228.26,508.17 1208.83,525.23 1198.52,557.34 1179.21,574.91 1151.33,589.06 1164.52,609.48 1196.55,627.45 1209.23,614.05 1225,619 1230.41,637.53 1248.02,654.96 1346.15,658.47 1365.14,641.59 1404.15,654.05 1409.47,622.77" />
    </g>
    <g id="region:bg" data-region-id="22" data-region-slug="bg" data-region-name="Bulgarie" style="fill:#c245f7;fill-opacity:0.28;stroke:#31e6ff;stroke-width:1.5;stroke-opacity:0.72;vector-effect:non-scaling-stroke">
      <polygon id="region__bg__00" points="1258,755 1302.6,746.33 1331.69,755.56 1355.89,738.42 1380.7,722.31 1407,725 1388,704 1411.15,655.05 1365.02,642.66 1346.62,659.2 1266.77,655.14 1248.05,654.82 1231.41,638.53 1235.41,644.53 1230.89,667.93 1257.09,696 1235.26,721.26" />
    </g>
    <g id="region:gr" data-region-id="23" data-region-slug="gr" data-region-name="Grèce" style="fill:#f745bf;fill-opacity:0.28;stroke:#31e6ff;stroke-width:1.5;stroke-opacity:0.72;vector-effect:non-scaling-stroke">
      <polygon id="region__gr__00" points="1349.19,775.44 1360.07,752.91 1355.63,739.05 1333.99,755.14 1301.68,747.24 1257,756 1237.24,763.9 1216.91,775.11 1176.78,789.63 1138.78,830.09 1187,872 1181,875 1181,881 1174,890 1190,900 1190.57,930.48 1202.93,920.18 1218.73,941 1225.26,927.73 1242.42,941 1243.8,928.08 1236,907 1257,906 1257,898 1267,889 1279,894 1283,884 1297,877 1287,869 1286,859 1269,849 1271,839 1257,835 1231,807 1231,801 1241,791 1254,799 1261,809 1279,810 1291,802 1278,790 1281,783 1293,778 1306,787 1308,778" />
      <polygon id="region__gr__01" points="1306,900 1319,907 1322,915 1340,918 1341,915 1330,908 1329,901 1313,890" />
    </g>
    <g id="region:eu_north_balkans" data-region-id="24" data-region-slug="eu_north_balkans" data-region-name="Balkans Nord UE" style="fill:#f74551;fill-opacity:0.28;stroke:#31e6ff;stroke-width:1.5;stroke-opacity:0.72;vector-effect:non-scaling-stroke">
      <polygon id="region__eu_north_balkans__00" points="985.71,609.02 1003.64,650.29 1049.67,707.7 1077.53,723.62 1118.44,758.86 1114.6,801.54 1140.61,828.76 1175.91,790.26 1236.24,762.9 1258.26,756.58 1233.83,720.77 1257.13,694.06 1230.98,668.48 1233.41,644.53 1227,618.46 1211.08,613.92 1192.9,625.29 1162.21,608.24 1151.41,591.19 1121.28,591.76 1095.97,617.14 1043.21,626.09" />
    </g>
    <g id="region:baltic_north" data-region-id="25" data-region-slug="baltic_north" data-region-name="Baltique Nord" style="fill:#f7a745;fill-opacity:0.28;stroke:#31e6ff;stroke-width:1.5;stroke-opacity:0.72;vector-effect:non-scaling-stroke">
      <polygon id="region__baltic_north__00" points="1201.6,167.98 1204.55,191.19 1224.17,200.21 1218.15,225.99 1196.94,229.8 1173,212.39 1150.71,228.7 1146.9,261.34 1151.38,278.88 1187.15,280.91 1210.81,296.28 1199.65,312.45 1218.14,340.19 1280.68,326.05 1327.45,273.3 1318.2,243.39 1294.27,216.75 1288.83,164.54 1253.57,158" />
    </g>
    <g id="region:baltic_south" data-region-id="26" data-region-slug="baltic_south" data-region-name="Baltique Sud" style="fill:#daf745;fill-opacity:0.28;stroke:#31e6ff;stroke-width:1.5;stroke-opacity:0.72;vector-effect:non-scaling-stroke">
      <polygon id="region__baltic_south__00" points="1280.86,328.36 1217.5,340.29 1225.46,361.13 1223.63,392.4 1249.99,419.99 1202.78,490.5 1226.69,507.67 1304.56,522.39 1330.92,499.09 1383.66,549.98 1379.98,587.99 1428.42,597.19 1457.24,543.84 1550.43,573.89 1655.44,524.83 1672,510.18 1672,425.78 1563.57,384.3 1504.72,411.31 1452.5,392.02 1417.54,373.63 1443.91,344.81 1406.47,292.51 1383.82,294.53 1330.92,271.61" />
    </g>
    <g id="region:si_hr" data-region-id="27" data-region-slug="si_hr" data-region-name="Slovénie-Croatie" style="fill:#6cf745;fill-opacity:0.28;stroke:#31e6ff;stroke-width:1.5;stroke-opacity:0.72;vector-effect:non-scaling-stroke">
      <polygon id="region__si_hr__00" points="931.56,588.04 930.06,608.86 937.89,618.42 923.41,624.56 935.93,644.68 969.23,668.38 1000.59,687.77 1023,708.11 1046.5,707.46 1002.55,648.85 987.01,609.65 1044.58,626.68 1106.69,617.35 1041.52,597.51 1010.48,570.93 991.44,578.46 975.19,574.89 957.74,589.56" />
    </g>
    <g id="region:lux_saarlorlux" data-region-id="28" data-region-slug="lux_saarlorlux" data-region-name="Luxembourg &amp; SaarLorLux" style="fill:#45f78c;fill-opacity:0.28;stroke:#31e6ff;stroke-width:1.5;stroke-opacity:0.72;vector-effect:non-scaling-stroke">
      <polygon id="region__lux_saarlorlux__00" points="685.68,590.1 741.78,544.67 801.02,537.15 822.41,546.57 807.86,563.68 822.84,579.94 842.51,586.35 806.58,610.73 788.13,590.61 771.94,607.74 758.25,587.64 745.41,606.45 722.31,606.03 710.34,586.35" />
    </g>
    <g id="region:med_islands" data-region-id="29" data-region-slug="med_islands" data-region-name="Méditerranée insulaire" style="fill:#45f4f7;fill-opacity:0.28;stroke:#31e6ff;stroke-width:1.5;stroke-opacity:0.72;vector-effect:non-scaling-stroke">
      <polygon id="region__med_islands__00" points="750.91,724.06 748.52,740.55 752.57,754.61 764,763 781,739 781.69,707.22" />
      <polygon id="region__med_islands__01" points="721.17,845.56 725.17,853.56 749.37,856.38 769.4,845.23 777.4,837.23 775.03,822.62 783.13,796.7 777.46,774.81 757.47,770.5 745.59,784.54 726.41,779.4 731,815.6" />
      <polygon id="region__med_islands__02" points="538,826 525,815 499,829 521,842" />
      <polygon id="region__med_islands__03" points="557,816 566,823 572,821 567,813" />
      <polygon id="region__med_islands__04" points="445.82,847.91 468.12,841.81 452.62,862.77" />
    </g>
    <g id="region:de_north" data-region-id="30" data-region-slug="de_north" data-region-name="Allemagne Nord" style="fill:#4586f7;fill-opacity:0.28;stroke:#31e6ff;stroke-width:1.5;stroke-opacity:0.72;vector-effect:non-scaling-stroke">
      <polygon id="region__de_north__00" points="962.19,422.31 986.76,421.84 981.39,402.13 986.8,380.48 968.59,363.25 984.83,350.46 974.01,331.26 945.95,302.22 901.99,317.83 889.85,327.33 870.65,323.88 874.59,310.59 847.04,304.68 838.17,291.89 810.62,292.87 802.24,323.38 797.33,335.69 788.47,326.83 768.29,327.81 755.98,333.72 771.25,342.58 768.78,366.69 754.51,391.31 727.44,396.71 736.8,415.91" />
    </g>
  </g>
</svg>